<?xml version="1.0" encoding="utf-8"?>
<!-- Generator: Adobe Illustrator 17.1.0, SVG Export Plug-In . SVG Version: 6.00 Build 0)  -->
<!DOCTYPE svg PUBLIC "-//W3C//DTD SVG 1.1//EN" "http://www.w3.org/Graphics/SVG/1.1/DTD/svg11.dtd">
<svg version="1.1" id="Layer_1" xmlns="http://www.w3.org/2000/svg" xmlns:xlink="http://www.w3.org/1999/xlink" x="0px" y="0px"
	 width="250px" height="250px" viewBox="0 0 250 250" enable-background="new 0 0 250 250" xml:space="preserve">
<circle fill="#29A3D2" cx="125" cy="125" r="115"/>
<path fill="#FFFFFF" d="M61.9,136.8c0-5.8,1.6-11.1,4.7-15.9c3.1-4.8,7.2-8.4,12.3-10.8c-0.1-1.2-0.1-2.2-0.1-2.8
	c0-9.3,3.3-17.2,9.9-23.8s14.5-9.9,23.8-9.9c6.9,0,13.2,1.9,18.8,5.8c5.6,3.9,9.7,8.9,12.3,15.1c3.1-2.7,6.7-4.1,10.9-4.1
	c4.6,0,8.6,1.6,11.9,4.9c3.3,3.3,4.9,7.3,4.9,11.9c0,3.3-0.9,6.3-2.7,9.1c5.7,1.3,10.3,4.3,14,8.8c3.7,4.6,5.5,9.8,5.5,15.7
	c0,7-2.5,12.9-7.4,17.9s-10.9,7.4-17.9,7.4H91.3c-8.1,0-15-2.9-20.8-8.6C64.8,151.9,61.9,144.9,61.9,136.8z"/>
<path display="none" fill="#29A3D2" d="M104.2,147.1v-12.2c0-0.8,0.4-1.3,1.1-1.6c0.7-0.3,1.3-0.2,1.9,0.4l3.9,3.9l9.6-9.6l-9.6-9.6
	l-3.9,3.9c-0.3,0.3-0.8,0.5-1.2,0.5c-0.2,0-0.4,0-0.7-0.1c-0.7-0.3-1.1-0.8-1.1-1.6v-12.2c0-0.5,0.2-0.9,0.5-1.2
	c0.3-0.3,0.8-0.5,1.2-0.5h12.2c0.8,0,1.3,0.4,1.6,1.1c0.3,0.7,0.2,1.3-0.4,1.9l-3.9,3.9l9.6,9.6l9.6-9.6l-3.9-3.9
	c-0.6-0.5-0.7-1.2-0.4-1.9c0.3-0.7,0.8-1.1,1.6-1.1h12.2c0.5,0,0.9,0.2,1.2,0.5c0.3,0.3,0.5,0.8,0.5,1.2v12.2c0,0.8-0.4,1.3-1.1,1.6
	c-0.2,0.1-0.5,0.1-0.7,0.1c-0.5,0-0.9-0.2-1.2-0.5l-3.9-3.9l-9.6,9.6l9.6,9.6l3.9-3.9c0.5-0.6,1.2-0.7,1.9-0.4
	c0.7,0.3,1.1,0.8,1.1,1.6v12.2c0,0.5-0.2,0.9-0.5,1.2c-0.3,0.3-0.8,0.5-1.2,0.5h-12.2c-0.8,0-1.3-0.4-1.6-1.1
	c-0.3-0.7-0.2-1.3,0.4-1.9l3.9-3.9l-9.6-9.6l-9.6,9.6l3.9,3.9c0.6,0.5,0.7,1.2,0.4,1.9c-0.3,0.7-0.8,1.1-1.6,1.1h-12.2
	c-0.5,0-0.9-0.2-1.2-0.5C104.3,148,104.2,147.6,104.2,147.1z"/>
<path fill="#29A3D2" d="M107.1,144v-17.9c0-0.8,0.3-1.5,0.9-2.1c0.6-0.6,1.3-0.9,2.1-0.9h1v-6c0-3.8,1.4-7.1,4.1-9.8
	c2.7-2.7,6-4.1,9.8-4.1c3.8,0,7.1,1.4,9.8,4.1c2.7,2.7,4.1,6,4.1,9.8v6h1c0.8,0,1.5,0.3,2.1,0.9c0.6,0.6,0.9,1.3,0.9,2.1V144
	c0,0.8-0.3,1.5-0.9,2.1c-0.6,0.6-1.3,0.9-2.1,0.9h-29.8c-0.8,0-1.5-0.3-2.1-0.9C107.4,145.6,107.1,144.9,107.1,144z M117.1,123.2
	h15.9v-6c0-2.2-0.8-4.1-2.3-5.6c-1.6-1.6-3.4-2.3-5.6-2.3c-2.2,0-4.1,0.8-5.6,2.3c-1.6,1.6-2.3,3.4-2.3,5.6V123.2z"/>
</svg>
